STARTFONT 2.1
FONT -sun-conga-bold-r-normal--12-120-75-75-p-83-adobe-fontspecific
SIZE 12 75 75
FONTBOUNDINGBOX 19 15 -3 -3

STARTPROPERTIES 28
FOUNDRY "sun"
FAMILY_NAME "conga"
WEIGHT_NAME "bold"
SLANT "r"
SETWIDTH_NAME "normal"
ADD_STYLE_NAME ""
PIXEL_SIZE 12
POINT_SIZE 120
RESOLUTION_X 75
RESOLUTION_Y 75
SPACING "p"
AVERAGE_WIDTH 83
CHARSET_REGISTRY "adobe"
CHARSET_ENCODING "fontspecific"
COPYRIGHT "© 1999 Sun Microsystems, Inc."
RAW_PIXELSIZE 1000
RAW_POINTSIZE 964
RAW_ASCENT 928
RAW_DESCENT 219
RAW_AVERAGE_WIDTH 6696
FACE_NAME "CongaBoldrg"
_XMBDFED_INFO "Edited with xmbdfed 2.4."
WEIGHT 10
X_HEIGHT -1
QUAD_WIDTH 8
DEFAULT_CHAR 4
FONT_DESCENT 3
FONT_ASCENT 12
ENDPROPERTIES

CHARS 203

STARTCHAR char32
ENCODING 32
SWIDTH 43 0
DWIDTH 6 0
BBX 0 0 0 0
BITMAP
ENDCHAR

STARTCHAR char33
ENCODING 33
SWIDTH 21 0
DWIDTH 3 0
BBX 2 9 1 0
BITMAP
C0
80
80
80
80
80
00
00
80
ENDCHAR

STARTCHAR char34
ENCODING 34
SWIDTH 28 0
DWIDTH 4 0
BBX 4 3 0 6
BITMAP
F0
50
50
ENDCHAR

STARTCHAR char35
ENCODING 35
SWIDTH 50 0
DWIDTH 7 0
BBX 6 9 0 0
BITMAP
24
24
7C
28
28
38
C8
48
48
ENDCHAR

STARTCHAR char36
ENCODING 36
SWIDTH 71 0
DWIDTH 10 0
BBX 9 11 0 -1
BITMAP
0800
1E00
7580
C500
CC00
7F00
0D80
0980
CB80
7F00
0C00
ENDCHAR

STARTCHAR char37
ENCODING 37
SWIDTH 34 0
DWIDTH 15 0
BBX 15 9 -1 0
BITMAP
3820
C620
C640
C6B8
C744
3AC6
06C6
04C6
087C
ENDCHAR

STARTCHAR char38
ENCODING 38
SWIDTH 6 0
DWIDTH 11 0
BBX 11 9 0 0
BITMAP
3C00
6600
6600
7640
3CC0
C700
C700
67A0
3CC0
ENDCHAR

STARTCHAR char39
ENCODING 39
SWIDTH 14 0
DWIDTH 2 0
BBX 2 3 0 7
BITMAP
80
80
C0
ENDCHAR

STARTCHAR char40
ENCODING 40
SWIDTH 28 0
DWIDTH 4 0
BBX 4 9 0 0
BITMAP
20
20
40
C0
C0
C0
C0
60
30
ENDCHAR

STARTCHAR char41
ENCODING 41
SWIDTH 28 0
DWIDTH 4 0
BBX 4 9 0 0
BITMAP
80
40
20
30
30
30
20
60
80
ENDCHAR

STARTCHAR char42
ENCODING 42
SWIDTH 50 0
DWIDTH 7 0
BBX 6 5 0 4
BITMAP
30
64
F8
30
58
ENDCHAR

STARTCHAR char43
ENCODING 43
SWIDTH 64 0
DWIDTH 9 0
BBX 8 7 0 0
BITMAP
18
18
18
FF
18
18
18
ENDCHAR

STARTCHAR char44
ENCODING 44
SWIDTH 21 0
DWIDTH 3 0
BBX 2 2 0 -1
BITMAP
C0
40
ENDCHAR

STARTCHAR char45
ENCODING 45
SWIDTH 28 0
DWIDTH 4 0
BBX 3 1 0 3
BITMAP
E0
ENDCHAR

STARTCHAR char46
ENCODING 46
SWIDTH 21 0
DWIDTH 3 0
BBX 2 1 0 0
BITMAP
C0
ENDCHAR

STARTCHAR char47
ENCODING 47
SWIDTH 64 0
DWIDTH 9 0
BBX 8 9 0 0
BITMAP
01
02
04
04
08
10
20
40
80
ENDCHAR

STARTCHAR char48
ENCODING 48
SWIDTH 6 0
DWIDTH 11 0
BBX 10 9 0 0
BITMAP
1E00
6300
4180
C0C0
C0C0
C0C0
C180
6300
3E00
ENDCHAR

STARTCHAR char49
ENCODING 49
SWIDTH 6 0
DWIDTH 11 0
BBX 3 9 3 0
BITMAP
60
E0
A0
60
60
60
60
60
60
ENDCHAR

STARTCHAR char50
ENCODING 50
SWIDTH 6 0
DWIDTH 11 0
BBX 8 9 1 0
BITMAP
3E
67
83
03
0E
38
60
C1
FF
ENDCHAR

STARTCHAR char51
ENCODING 51
SWIDTH 6 0
DWIDTH 11 0
BBX 8 9 1 0
BITMAP
3E
C7
43
13
1E
03
83
C3
7E
ENDCHAR

STARTCHAR char52
ENCODING 52
SWIDTH 6 0
DWIDTH 11 0
BBX 10 9 0 0
BITMAP
0200
0700
0B00
1300
2300
6300
FF80
8340
0380
ENDCHAR

STARTCHAR char53
ENCODING 53
SWIDTH 6 0
DWIDTH 11 0
BBX 8 9 1 0
BITMAP
FF
C1
C0
BC
C3
03
83
C2
7C
ENDCHAR

STARTCHAR char54
ENCODING 54
SWIDTH 6 0
DWIDTH 11 0
BBX 8 9 1 0
BITMAP
3E
63
C2
FE
E7
C3
C3
42
3C
ENDCHAR

STARTCHAR char55
ENCODING 55
SWIDTH 6 0
DWIDTH 11 0
BBX 8 9 1 0
BITMAP
FF
82
06
04
0C
18
10
30
70
ENDCHAR

STARTCHAR char56
ENCODING 56
SWIDTH 6 0
DWIDTH 11 0
BBX 8 9 1 0
BITMAP
7C
C2
C3
C2
7C
C3
C3
C3
7C
ENDCHAR

STARTCHAR char57
ENCODING 57
SWIDTH 6 0
DWIDTH 11 0
BBX 8 9 1 0
BITMAP
3C
46
C3
C3
C7
7B
03
C6
7C
ENDCHAR

STARTCHAR char58
ENCODING 58
SWIDTH 21 0
DWIDTH 3 0
BBX 2 6 1 0
BITMAP
C0
00
00
00
00
C0
ENDCHAR

STARTCHAR char59
ENCODING 59
SWIDTH 21 0
DWIDTH 3 0
BBX 2 8 1 -1
BITMAP
40
C0
00
00
00
40
C0
40
ENDCHAR

STARTCHAR char60
ENCODING 60
SWIDTH 57 0
DWIDTH 8 0
BBX 6 6 1 0
BITMAP
0C
70
80
C0
38
04
ENDCHAR

STARTCHAR char61
ENCODING 61
SWIDTH 64 0
DWIDTH 9 0
BBX 8 3 0 2
BITMAP
FF
00
FF
ENDCHAR

STARTCHAR char62
ENCODING 62
SWIDTH 57 0
DWIDTH 8 0
BBX 6 6 1 0
BITMAP
C0
30
0C
18
60
80
ENDCHAR

STARTCHAR char63
ENCODING 63
SWIDTH 50 0
DWIDTH 7 0
BBX 5 9 1 0
BITMAP
70
98
18
10
30
60
00
00
70
ENDCHAR

STARTCHAR char64
ENCODING 64
SWIDTH 27 0
DWIDTH 14 0
BBX 10 9 1 0
BITMAP
1F00
2080
7FC0
F3C0
F2C0
F2C0
7F00
2080
1F00
ENDCHAR

STARTCHAR char65
ENCODING 65
SWIDTH 6 0
DWIDTH 11 0
BBX 10 9 0 0
BITMAP
1C00
1C00
1600
3200
2200
3F00
4100
4180
E1C0
ENDCHAR

STARTCHAR char66
ENCODING 66
SWIDTH 6 0
DWIDTH 11 0
BBX 10 9 0 0
BITMAP
7F00
61C0
60C0
6180
7F00
6180
60C0
61C0
7F00
ENDCHAR

STARTCHAR char67
ENCODING 67
SWIDTH 13 0
DWIDTH 12 0
BBX 10 9 0 0
BITMAP
1F00
31C0
6080
C000
C000
C000
4040
60C0
1F00
ENDCHAR

STARTCHAR char68
ENCODING 68
SWIDTH 6 0
DWIDTH 11 0
BBX 10 9 0 0
BITMAP
7F00
6180
60C0
60C0
60C0
60C0
60C0
6180
7E00
ENDCHAR

STARTCHAR char69
ENCODING 69
SWIDTH 71 0
DWIDTH 10 0
BBX 10 9 0 0
BITMAP
7F80
4040
4000
4000
7E00
6000
6000
6000
7F80
ENDCHAR

STARTCHAR char70
ENCODING 70
SWIDTH 71 0
DWIDTH 10 0
BBX 10 9 0 0
BITMAP
7F80
4040
4000
4000
7E00
6000
6000
6000
7000
ENDCHAR

STARTCHAR char71
ENCODING 71
SWIDTH 13 0
DWIDTH 12 0
BBX 11 9 0 0
BITMAP
1F80
31C0
4080
C000
C420
C7C0
C0C0
61E0
1F00
ENDCHAR

STARTCHAR char72
ENCODING 72
SWIDTH 6 0
DWIDTH 11 0
BBX 11 9 0 0
BITMAP
61C0
40C0
40C0
40C0
7FC0
40C0
60C0
60C0
70E0
ENDCHAR

STARTCHAR char73
ENCODING 73
SWIDTH 28 0
DWIDTH 4 0
BBX 3 9 1 0
BITMAP
C0
C0
C0
C0
C0
C0
C0
C0
E0
ENDCHAR

STARTCHAR char74
ENCODING 74
SWIDTH 64 0
DWIDTH 9 0
BBX 8 9 0 0
BITMAP
07
06
06
06
06
06
06
86
7C
ENDCHAR

STARTCHAR char75
ENCODING 75
SWIDTH 71 0
DWIDTH 10 0
BBX 10 9 0 0
BITMAP
E380
6200
6C00
5800
7C00
6400
6200
6300
F1C0
ENDCHAR

STARTCHAR char76
ENCODING 76
SWIDTH 71 0
DWIDTH 10 0
BBX 8 9 1 0
BITMAP
C0
C0
C0
C0
C0
C0
C0
C0
FF
ENDCHAR

STARTCHAR char77
ENCODING 77
SWIDTH 20 0
DWIDTH 13 0
BBX 12 9 0 0
BITMAP
60F0
E0E0
F0A0
D1E0
D960
CA60
CE60
C460
E470
ENDCHAR

STARTCHAR char78
ENCODING 78
SWIDTH 13 0
DWIDTH 12 0
BBX 11 9 0 0
BITMAP
F0E0
F0C0
D0C0
C8C0
CCC0
C6C0
C3C0
C1C0
E0E0
ENDCHAR

STARTCHAR char79
ENCODING 79
SWIDTH 13 0
DWIDTH 12 0
BBX 11 9 0 0
BITMAP
1F00
3180
40C0
C060
C060
C060
4040
60C0
1F00
ENDCHAR

STARTCHAR char80
ENCODING 80
SWIDTH 71 0
DWIDTH 10 0
BBX 9 9 0 0
BITMAP
7F00
6180
6180
6180
7F00
6000
6000
6000
F000
ENDCHAR

STARTCHAR char81
ENCODING 81
SWIDTH 13 0
DWIDTH 12 0
BBX 10 10 0 -1
BITMAP
1E00
3180
4080
C0C0
C0C0
C0C0
C0C0
6780
3F00
0180
ENDCHAR

STARTCHAR char82
ENCODING 82
SWIDTH 71 0
DWIDTH 10 0
BBX 10 9 0 0
BITMAP
7F00
6180
6180
6180
7F00
6600
6200
6100
71C0
ENDCHAR

STARTCHAR char83
ENCODING 83
SWIDTH 6 0
DWIDTH 11 0
BBX 9 9 0 0
BITMAP
3F00
6380
C100
E000
3F00
0180
4180
E100
3E00
ENDCHAR

STARTCHAR char84
ENCODING 84
SWIDTH 71 0
DWIDTH 10 0
BBX 9 9 0 0
BITMAP
FF80
9880
1800
1800
1800
1800
1800
1800
1C00
ENDCHAR

STARTCHAR char85
ENCODING 85
SWIDTH 6 0
DWIDTH 11 0
BBX 9 9 0 0
BITMAP
C180
C180
C180
C180
C180
C180
C180
E180
3F00
ENDCHAR

STARTCHAR char86
ENCODING 86
SWIDTH 71 0
DWIDTH 10 0
BBX 9 9 0 0
BITMAP
E180
4180
4100
6300
2200
3600
1400
1C00
1C00
ENDCHAR

STARTCHAR char87
ENCODING 87
SWIDTH 34 0
DWIDTH 15 0
BBX 13 9 0 0
BITMAP
E718
C718
4510
6510
65B0
28A0
28A0
38E0
38E0
ENDCHAR

STARTCHAR char88
ENCODING 88
SWIDTH 64 0
DWIDTH 9 0
BBX 9 9 0 0
BITMAP
E300
6200
2400
1C00
1800
1C00
2400
6200
E380
ENDCHAR

STARTCHAR char89
ENCODING 89
SWIDTH 71 0
DWIDTH 10 0
BBX 9 9 0 0
BITMAP
C380
4300
2600
2C00
1C00
1800
1800
1800
1C00
ENDCHAR

STARTCHAR char90
ENCODING 90
SWIDTH 71 0
DWIDTH 10 0
BBX 9 9 0 0
BITMAP
FF00
8200
0600
0C00
0800
1000
3000
6000
7F80
ENDCHAR

STARTCHAR char91
ENCODING 91
SWIDTH 35 0
DWIDTH 5 0
BBX 3 9 1 0
BITMAP
E0
C0
C0
C0
C0
C0
C0
C0
E0
ENDCHAR

STARTCHAR char92
ENCODING 92
SWIDTH 28 0
DWIDTH 4 0
BBX 4 9 0 0
BITMAP
80
80
40
40
40
20
20
20
10
ENDCHAR

STARTCHAR char93
ENCODING 93
SWIDTH 35 0
DWIDTH 5 0
BBX 4 9 0 0
BITMAP
F0
30
30
30
30
30
30
30
F0
ENDCHAR

STARTCHAR char94
ENCODING 94
SWIDTH 0 0
DWIDTH 0 0
BBX 4 2 -2 9
BITMAP
60
90
ENDCHAR

STARTCHAR char95
ENCODING 95
SWIDTH 50 0
DWIDTH 7 0
BBX 7 1 0 -2
BITMAP
FE
ENDCHAR

STARTCHAR char96
ENCODING 96
SWIDTH 0 0
DWIDTH 0 0
BBX 3 2 -2 8
BITMAP
40
40
ENDCHAR

STARTCHAR char97
ENCODING 97
SWIDTH 64 0
DWIDTH 9 0
BBX 8 7 0 0
BITMAP
1C
28
24
64
7E
42
C3
ENDCHAR

STARTCHAR char98
ENCODING 98
SWIDTH 64 0
DWIDTH 9 0
BBX 8 7 0 0
BITMAP
FE
C3
C3
FE
C3
C3
FE
ENDCHAR

STARTCHAR char99
ENCODING 99
SWIDTH 64 0
DWIDTH 9 0
BBX 8 7 0 0
BITMAP
3E
41
C0
C0
C0
41
3E
ENDCHAR

STARTCHAR char100
ENCODING 100
SWIDTH 71 0
DWIDTH 10 0
BBX 9 7 0 0
BITMAP
FE00
C300
C180
C180
C180
C300
FC00
ENDCHAR

STARTCHAR char101
ENCODING 101
SWIDTH 64 0
DWIDTH 9 0
BBX 7 8 0 0
BITMAP
02
FE
C0
C2
FC
C0
C0
FE
ENDCHAR

STARTCHAR char102
ENCODING 102
SWIDTH 57 0
DWIDTH 8 0
BBX 7 8 0 0
BITMAP
02
FE
C0
C2
FC
C0
C0
E0
ENDCHAR

STARTCHAR char103
ENCODING 103
SWIDTH 71 0
DWIDTH 10 0
BBX 9 7 0 0
BITMAP
3F00
4100
C000
C780
C180
4180
3E00
ENDCHAR

STARTCHAR char104
ENCODING 104
SWIDTH 71 0
DWIDTH 10 0
BBX 8 7 0 0
BITMAP
C3
C3
C3
FF
C3
C3
E3
ENDCHAR

STARTCHAR char105
ENCODING 105
SWIDTH 21 0
DWIDTH 3 0
BBX 3 7 1 0
BITMAP
A0
C0
C0
C0
C0
C0
A0
ENDCHAR

STARTCHAR char106
ENCODING 106
SWIDTH 50 0
DWIDTH 7 0
BBX 7 7 0 0
BITMAP
0E
0C
0C
0C
0C
4C
78
ENDCHAR

STARTCHAR char107
ENCODING 107
SWIDTH 64 0
DWIDTH 9 0
BBX 9 7 0 0
BITMAP
E780
C800
B000
E800
CC00
C600
E380
ENDCHAR

STARTCHAR char108
ENCODING 108
SWIDTH 57 0
DWIDTH 8 0
BBX 7 7 0 0
BITMAP
E0
C0
C0
C0
C0
C0
FE
ENDCHAR

STARTCHAR char109
ENCODING 109
SWIDTH 6 0
DWIDTH 11 0
BBX 10 7 0 0
BITMAP
F1C0
E380
D280
D580
DD80
C980
E9C0
ENDCHAR

STARTCHAR char110
ENCODING 110
SWIDTH 71 0
DWIDTH 10 0
BBX 9 7 0 0
BITMAP
7380
F300
DB00
CB00
C700
C300
4180
ENDCHAR

STARTCHAR char111
ENCODING 111
SWIDTH 71 0
DWIDTH 10 0
BBX 9 7 0 0
BITMAP
3F00
4100
C180
C180
C180
6100
1E00
ENDCHAR

STARTCHAR char112
ENCODING 112
SWIDTH 64 0
DWIDTH 9 0
BBX 8 7 0 0
BITMAP
FE
C3
C3
FE
C0
C0
E0
ENDCHAR

STARTCHAR char113
ENCODING 113
SWIDTH 71 0
DWIDTH 10 0
BBX 9 8 0 -1
BITMAP
3F00
4180
C180
C180
C180
5F00
3E00
0100
ENDCHAR

STARTCHAR char114
ENCODING 114
SWIDTH 64 0
DWIDTH 9 0
BBX 9 7 0 0
BITMAP
FE00
C300
C300
FE00
C400
C600
E380
ENDCHAR

STARTCHAR char115
ENCODING 115
SWIDTH 64 0
DWIDTH 9 0
BBX 8 7 0 0
BITMAP
7E
C2
E0
3E
03
C3
7C
ENDCHAR

STARTCHAR char116
ENCODING 116
SWIDTH 57 0
DWIDTH 8 0
BBX 9 8 -1 0
BITMAP
8080
FF00
0C00
0C00
0C00
0C00
0C00
0800
ENDCHAR

STARTCHAR char117
ENCODING 117
SWIDTH 71 0
DWIDTH 10 0
BBX 9 7 0 0
BITMAP
E180
C100
C300
C300
C300
C300
3E00
ENDCHAR

STARTCHAR char118
ENCODING 118
SWIDTH 64 0
DWIDTH 9 0
BBX 9 7 0 0
BITMAP
E380
4200
6400
2400
2800
1800
1400
ENDCHAR

STARTCHAR char119
ENCODING 119
SWIDTH 13 0
DWIDTH 12 0
BBX 12 7 0 0
BITMAP
CE70
4A40
4A40
4A40
3380
3180
39C0
ENDCHAR

STARTCHAR char120
ENCODING 120
SWIDTH 57 0
DWIDTH 8 0
BBX 8 7 0 0
BITMAP
E7
28
38
10
28
44
E7
ENDCHAR

STARTCHAR char121
ENCODING 121
SWIDTH 57 0
DWIDTH 8 0
BBX 8 7 0 0
BITMAP
E7
64
2C
18
18
18
14
ENDCHAR

STARTCHAR char122
ENCODING 122
SWIDTH 57 0
DWIDTH 8 0
BBX 7 7 0 0
BITMAP
FE
04
08
10
20
40
FE
ENDCHAR

STARTCHAR char123
ENCODING 123
SWIDTH 35 0
DWIDTH 5 0
BBX 3 12 1 -3
BITMAP
60
C0
C0
40
C0
80
80
80
C0
C0
C0
E0
ENDCHAR

STARTCHAR char124
ENCODING 124
SWIDTH 28 0
DWIDTH 4 0
BBX 2 9 1 0
BITMAP
C0
C0
C0
C0
C0
C0
C0
C0
C0
ENDCHAR

STARTCHAR char125
ENCODING 125
SWIDTH 35 0
DWIDTH 5 0
BBX 3 12 1 -3
BITMAP
80
C0
C0
C0
C0
60
C0
C0
C0
C0
C0
C0
ENDCHAR

STARTCHAR char126
ENCODING 126
SWIDTH 0 0
DWIDTH 0 0
BBX 6 2 -3 9
BITMAP
7C
40
ENDCHAR

STARTCHAR char128
ENCODING 128
SWIDTH 13 0
DWIDTH 12 0
BBX 11 9 0 0
BITMAP
0F80
18E0
2040
FF80
FF80
6000
2020
3060
0F80
ENDCHAR

STARTCHAR char130
ENCODING 130
SWIDTH 14 0
DWIDTH 2 0
BBX 2 2 0 -1
BITMAP
C0
40
ENDCHAR

STARTCHAR char131
ENCODING 131
SWIDTH 0 0
DWIDTH 0 0
BBX 4 2 -2 9
BITMAP
60
90
ENDCHAR

STARTCHAR char132
ENCODING 132
SWIDTH 35 0
DWIDTH 5 0
BBX 4 4 0 -2
BITMAP
50
F0
50
50
ENDCHAR

STARTCHAR char133
ENCODING 133
SWIDTH 20 0
DWIDTH 13 0
BBX 11 1 1 0
BITMAP
CC60
ENDCHAR

STARTCHAR char134
ENCODING 134
SWIDTH 57 0
DWIDTH 8 0
BBX 7 11 0 -2
BITMAP
30
30
30
FE
30
30
30
30
30
30
30
ENDCHAR

STARTCHAR char136
ENCODING 136
SWIDTH 0 0
DWIDTH 0 0
BBX 4 4 -2 6
BITMAP
60
60
90
90
ENDCHAR

STARTCHAR char138
ENCODING 138
SWIDTH 13 0
DWIDTH 12 0
BBX 0 0 0 0
BITMAP
ENDCHAR

STARTCHAR char139
ENCODING 139
SWIDTH 28 0
DWIDTH 4 0
BBX 2 5 1 1
BITMAP
40
40
80
40
40
ENDCHAR

STARTCHAR char140
ENCODING 140
SWIDTH 34 0
DWIDTH 15 0
BBX 14 9 0 0
BITMAP
1FFC
630C
4300
C300
C3E0
C300
4300
6200
1FF8
ENDCHAR

STARTCHAR char141
ENCODING 141
SWIDTH 13 0
DWIDTH 12 0
BBX 0 0 0 0
BITMAP
ENDCHAR

STARTCHAR char145
ENCODING 145
SWIDTH 21 0
DWIDTH 3 0
BBX 2 3 0 7
BITMAP
80
80
C0
ENDCHAR

STARTCHAR char146
ENCODING 146
SWIDTH 21 0
DWIDTH 3 0
BBX 2 3 0 6
BITMAP
C0
C0
40
ENDCHAR

STARTCHAR char147
ENCODING 147
SWIDTH 35 0
DWIDTH 5 0
BBX 4 3 0 6
BITMAP
A0
A0
F0
ENDCHAR

STARTCHAR char148
ENCODING 148
SWIDTH 35 0
DWIDTH 5 0
BBX 4 3 0 6
BITMAP
F0
50
50
ENDCHAR

STARTCHAR char149
ENCODING 149
SWIDTH 28 0
DWIDTH 4 0
BBX 3 3 1 3
BITMAP
E0
E0
E0
ENDCHAR

STARTCHAR char150
ENCODING 150
SWIDTH 6 0
DWIDTH 11 0
BBX 9 1 0 3
BITMAP
FF80
ENDCHAR

STARTCHAR char151
ENCODING 151
SWIDTH 64 0
DWIDTH 9 0
BBX 8 1 0 3
BITMAP
FF
ENDCHAR

STARTCHAR char152
ENCODING 152
SWIDTH 0 0
DWIDTH 0 0
BBX 5 1 -3 8
BITMAP
78
ENDCHAR

STARTCHAR char153
ENCODING 153
SWIDTH 13 0
DWIDTH 12 0
BBX 11 5 0 3
BITMAP
FC60
26C0
66C0
67C0
6DC0
ENDCHAR

STARTCHAR char155
ENCODING 155
SWIDTH 28 0
DWIDTH 4 0
BBX 2 5 1 1
BITMAP
80
80
40
C0
80
ENDCHAR

STARTCHAR char156
ENCODING 156
SWIDTH 13 0
DWIDTH 12 0
BBX 11 8 0 0
BITMAP
0020
3FE0
4600
C640
C780
C600
4600
3FE0
ENDCHAR

STARTCHAR char157
ENCODING 157
SWIDTH 13 0
DWIDTH 12 0
BBX 0 0 0 0
BITMAP
ENDCHAR

STARTCHAR char159
ENCODING 159
SWIDTH 71 0
DWIDTH 10 0
BBX 9 11 0 0
BITMAP
6600
0000
C380
4300
2600
2C00
1C00
1800
1800
1800
1C00
ENDCHAR

STARTCHAR char160
ENCODING 160
SWIDTH 43 0
DWIDTH 6 0
BBX 0 0 0 0
BITMAP
ENDCHAR

STARTCHAR char161
ENCODING 161
SWIDTH 21 0
DWIDTH 3 0
BBX 3 9 0 0
BITMAP
C0
00
00
40
40
40
C0
C0
E0
ENDCHAR

STARTCHAR char162
ENCODING 162
SWIDTH 64 0
DWIDTH 9 0
BBX 8 10 0 -1
BITMAP
0C
0C
3F
4D
CC
C8
C8
49
3E
0C
ENDCHAR

STARTCHAR char163
ENCODING 163
SWIDTH 6 0
DWIDTH 11 0
BBX 10 9 0 0
BITMAP
1F00
31C0
6080
6000
FE00
E600
6000
6000
FF80
ENDCHAR

STARTCHAR char164
ENCODING 164
SWIDTH 0 0
DWIDTH 0 0
BBX 3 3 -1 9
BITMAP
60
40
40
ENDCHAR

STARTCHAR char165
ENCODING 165
SWIDTH 0 0
DWIDTH 0 0
BBX 5 3 -2 9
BITMAP
18
A0
60
ENDCHAR

STARTCHAR char166
ENCODING 166
SWIDTH 13 0
DWIDTH 12 0
BBX 0 0 0 0
BITMAP
ENDCHAR

STARTCHAR char167
ENCODING 167
SWIDTH 50 0
DWIDTH 7 0
BBX 6 12 0 -3
BITMAP
78
CC
C0
70
DC
CC
CC
7C
1C
8C
CC
78
ENDCHAR

STARTCHAR char168
ENCODING 168
SWIDTH 0 0
DWIDTH 0 0
BBX 4 1 -2 8
BITMAP
F0
ENDCHAR

STARTCHAR char169
ENCODING 169
SWIDTH 6 0
DWIDTH 11 0
BBX 10 8 0 0
BITMAP
1E00
6F00
5280
F0C0
F0C0
7280
6D00
1E00
ENDCHAR

STARTCHAR char170
ENCODING 170
SWIDTH 0 0
DWIDTH 0 0
BBX 6 1 -3 10
BITMAP
CC
ENDCHAR

STARTCHAR char171
ENCODING 171
SWIDTH 43 0
DWIDTH 6 0
BBX 4 5 1 1
BITMAP
50
A0
A0
A0
50
ENDCHAR

STARTCHAR char172
ENCODING 172
SWIDTH 71 0
DWIDTH 10 0
BBX 9 3 0 0
BITMAP
FF80
0180
0180
ENDCHAR

STARTCHAR char174
ENCODING 174
SWIDTH 6 0
DWIDTH 11 0
BBX 10 8 0 0
BITMAP
1E00
7D00
5680
DEC0
DCC0
DE80
7F00
1E00
ENDCHAR

STARTCHAR char176
ENCODING 176
SWIDTH 43 0
DWIDTH 6 0
BBX 5 4 -1 4
BITMAP
70
D8
58
20
ENDCHAR

STARTCHAR char177
ENCODING 177
SWIDTH 50 0
DWIDTH 7 0
BBX 6 8 0 0
BITMAP
30
30
30
FC
30
30
30
FC
ENDCHAR

STARTCHAR char179
ENCODING 179
SWIDTH 13 0
DWIDTH 12 0
BBX 0 0 0 0
BITMAP
ENDCHAR

STARTCHAR char180
ENCODING 180
SWIDTH 0 0
DWIDTH 0 0
BBX 3 2 -1 8
BITMAP
40
40
ENDCHAR

STARTCHAR char182
ENCODING 182
SWIDTH 64 0
DWIDTH 9 0
BBX 6 11 1 -2
BITMAP
7C
EC
EC
EC
6C
2C
2C
2C
2C
2C
2C
ENDCHAR

STARTCHAR char183
ENCODING 183
SWIDTH 14 0
DWIDTH 2 0
BBX 2 1 0 3
BITMAP
C0
ENDCHAR

STARTCHAR char184
ENCODING 184
SWIDTH 0 0
DWIDTH 0 0
BBX 3 2 -1 -2
BITMAP
E0
E0
ENDCHAR

STARTCHAR char185
ENCODING 185
SWIDTH 13 0
DWIDTH 12 0
BBX 0 0 0 0
BITMAP
ENDCHAR

STARTCHAR char186
ENCODING 186
SWIDTH 0 0
DWIDTH 0 0
BBX 6 2 -3 9
BITMAP
7C
40
ENDCHAR

STARTCHAR char187
ENCODING 187
SWIDTH 43 0
DWIDTH 6 0
BBX 4 5 1 1
BITMAP
A0
A0
60
A0
C0
ENDCHAR

STARTCHAR char189
ENCODING 189
SWIDTH 13 0
DWIDTH 12 0
BBX 0 0 0 0
BITMAP
ENDCHAR

STARTCHAR char191
ENCODING 191
SWIDTH 50 0
DWIDTH 7 0
BBX 6 9 0 0
BITMAP
30
00
00
30
20
40
C0
C8
70
ENDCHAR

STARTCHAR char192
ENCODING 192
SWIDTH 6 0
DWIDTH 11 0
BBX 10 12 0 0
BITMAP
1000
1000
0800
0C00
1C00
1600
3200
2200
3F00
4100
4180
E1C0
ENDCHAR

STARTCHAR char193
ENCODING 193
SWIDTH 6 0
DWIDTH 11 0
BBX 10 12 0 0
BITMAP
0600
0400
0800
0C00
1C00
1600
3200
2200
3F00
4100
4180
E1C0
ENDCHAR

STARTCHAR char194
ENCODING 194
SWIDTH 6 0
DWIDTH 11 0
BBX 10 11 0 0
BITMAP
1C00
1400
0C00
1C00
1600
3200
2200
3F00
4100
4180
E1C0
ENDCHAR

STARTCHAR char195
ENCODING 195
SWIDTH 6 0
DWIDTH 11 0
BBX 10 11 0 0
BITMAP
3E00
2000
0C00
1C00
1600
3200
2200
3F00
4100
4180
E1C0
ENDCHAR

STARTCHAR char196
ENCODING 196
SWIDTH 6 0
DWIDTH 11 0
BBX 10 9 0 0
BITMAP
6380
1C00
1600
3200
2300
3F00
6180
4180
E0C0
ENDCHAR

STARTCHAR char197
ENCODING 197
SWIDTH 6 0
DWIDTH 11 0
BBX 10 11 0 0
BITMAP
1E00
1E00
1F00
1E00
1600
1200
2200
3F00
4100
C180
E1C0
ENDCHAR

STARTCHAR char198
ENCODING 198
SWIDTH 34 0
DWIDTH 15 0
BBX 14 9 0 0
BITMAP
0FF8
0E04
1600
1600
27E0
7E00
4200
C200
83F8
ENDCHAR

STARTCHAR char199
ENCODING 199
SWIDTH 13 0
DWIDTH 12 0
BBX 10 11 0 -2
BITMAP
1F00
31C0
6080
C000
C000
C000
C040
78C0
0700
0E00
0600
ENDCHAR

STARTCHAR char200
ENCODING 200
SWIDTH 71 0
DWIDTH 10 0
BBX 8 11 1 0
BITMAP
20
10
FF
81
80
80
FC
C0
C0
C0
FF
ENDCHAR

STARTCHAR char201
ENCODING 201
SWIDTH 71 0
DWIDTH 10 0
BBX 10 12 0 0
BITMAP
0A00
0C00
0800
7F80
4040
4000
4000
7E00
6000
6000
6000
7F80
ENDCHAR

STARTCHAR char202
ENCODING 202
SWIDTH 71 0
DWIDTH 10 0
BBX 10 11 0 0
BITMAP
1800
1400
7F80
4040
4000
4000
7E00
6000
6000
6000
7F80
ENDCHAR

STARTCHAR char203
ENCODING 203
SWIDTH 71 0
DWIDTH 10 0
BBX 10 11 0 0
BITMAP
2600
0000
7F80
4040
4000
4000
7E00
6000
6000
6000
7F80
ENDCHAR

STARTCHAR char204
ENCODING 204
SWIDTH 28 0
DWIDTH 4 0
BBX 4 11 0 0
BITMAP
C0
40
40
60
60
60
60
60
60
60
70
ENDCHAR

STARTCHAR char205
ENCODING 205
SWIDTH 28 0
DWIDTH 4 0
BBX 3 12 1 0
BITMAP
40
40
C0
C0
C0
C0
C0
C0
C0
C0
C0
E0
ENDCHAR

STARTCHAR char206
ENCODING 206
SWIDTH 28 0
DWIDTH 4 0
BBX 4 11 -1 0
BITMAP
60
B0
60
60
60
60
60
60
60
60
70
ENDCHAR

STARTCHAR char207
ENCODING 207
SWIDTH 28 0
DWIDTH 4 0
BBX 5 11 -1 0
BITMAP
D8
00
20
30
30
30
30
30
30
30
38
ENDCHAR

STARTCHAR char209
ENCODING 209
SWIDTH 13 0
DWIDTH 12 0
BBX 11 11 0 0
BITMAP
1F00
1000
60C0
F0C0
D0C0
C8C0
CCC0
C6C0
C3C0
C1C0
E0E0
ENDCHAR

STARTCHAR char210
ENCODING 210
SWIDTH 13 0
DWIDTH 12 0
BBX 11 11 0 0
BITMAP
0800
0400
1F00
3180
40C0
C060
C060
C060
4040
60C0
1F00
ENDCHAR

STARTCHAR char211
ENCODING 211
SWIDTH 13 0
DWIDTH 12 0
BBX 11 12 0 0
BITMAP
0600
0400
0400
1F00
3180
60C0
C060
C060
C060
4040
60C0
1F00
ENDCHAR

STARTCHAR char212
ENCODING 212
SWIDTH 13 0
DWIDTH 12 0
BBX 11 12 0 0
BITMAP
0400
0A00
1A00
1F00
3180
60C0
C060
C060
C060
4040
60C0
1F00
ENDCHAR

STARTCHAR char213
ENCODING 213
SWIDTH 13 0
DWIDTH 12 0
BBX 11 11 0 0
BITMAP
1F00
1000
1F00
3180
40C0
C060
C060
C060
4040
60C0
1F00
ENDCHAR

STARTCHAR char214
ENCODING 214
SWIDTH 13 0
DWIDTH 12 0
BBX 11 10 0 0
BITMAP
4000
DF60
7180
40C0
C060
C060
C060
4040
60C0
1F00
ENDCHAR

STARTCHAR char216
ENCODING 216
SWIDTH 13 0
DWIDTH 12 0
BBX 11 9 0 0
BITMAP
1F60
31C0
4140
C260
C460
C860
D040
61C0
9F00
ENDCHAR

STARTCHAR char217
ENCODING 217
SWIDTH 6 0
DWIDTH 11 0
BBX 9 11 0 0
BITMAP
0800
0800
C180
C180
C180
C180
C180
C180
C180
E180
3F00
ENDCHAR

STARTCHAR char218
ENCODING 218
SWIDTH 6 0
DWIDTH 11 0
BBX 9 12 0 0
BITMAP
0200
0400
0400
C180
C180
C180
C180
C180
C180
C180
E180
3F00
ENDCHAR

STARTCHAR char219
ENCODING 219
SWIDTH 6 0
DWIDTH 11 0
BBX 9 11 0 0
BITMAP
1C00
1600
C180
C180
C180
C180
C180
C180
C180
E180
3F00
ENDCHAR

STARTCHAR char220
ENCODING 220
SWIDTH 6 0
DWIDTH 11 0
BBX 10 9 0 0
BITMAP
BF40
C180
C180
C180
C180
C180
C180
E180
7F00
ENDCHAR

STARTCHAR char222
ENCODING 222
SWIDTH 13 0
DWIDTH 12 0
BBX 0 0 0 0
BITMAP
ENDCHAR

STARTCHAR char223
ENCODING 223
SWIDTH 49 0
DWIDTH 17 0
BBX 16 7 0 0
BITMAP
7E3E
C2C2
E0E0
3E1F
0303
C3C3
7C3E
ENDCHAR

STARTCHAR char224
ENCODING 224
SWIDTH 64 0
DWIDTH 9 0
BBX 8 10 0 0
BITMAP
30
10
00
18
28
24
64
7E
42
C3
ENDCHAR

STARTCHAR char225
ENCODING 225
SWIDTH 64 0
DWIDTH 9 0
BBX 8 10 0 0
BITMAP
08
10
00
18
28
24
64
7E
42
C3
ENDCHAR

STARTCHAR char226
ENCODING 226
SWIDTH 64 0
DWIDTH 9 0
BBX 8 10 0 0
BITMAP
38
28
00
18
28
24
64
7E
42
C3
ENDCHAR

STARTCHAR char227
ENCODING 227
SWIDTH 64 0
DWIDTH 9 0
BBX 8 9 0 0
BITMAP
7C
00
18
28
24
64
7E
42
C3
ENDCHAR

STARTCHAR char228
ENCODING 228
SWIDTH 64 0
DWIDTH 9 0
BBX 8 9 0 0
BITMAP
6C
00
38
28
2C
4C
7E
42
C3
ENDCHAR

STARTCHAR char229
ENCODING 229
SWIDTH 64 0
DWIDTH 9 0
BBX 8 10 0 0
BITMAP
3C
3C
1C
3E
2C
2C
64
7E
C2
C3
ENDCHAR

STARTCHAR char230
ENCODING 230
SWIDTH 13 0
DWIDTH 12 0
BBX 10 8 0 0
BITMAP
0040
1FC0
2C00
2980
4F80
7C00
C400
8FC0
ENDCHAR

STARTCHAR char231
ENCODING 231
SWIDTH 64 0
DWIDTH 9 0
BBX 8 9 0 -2
BITMAP
3E
41
C0
C0
C0
73
0C
1C
1C
ENDCHAR

STARTCHAR char232
ENCODING 232
SWIDTH 64 0
DWIDTH 9 0
BBX 7 10 0 0
BITMAP
10
10
02
FE
C0
C2
FC
C0
C0
FE
ENDCHAR

STARTCHAR char233
ENCODING 233
SWIDTH 64 0
DWIDTH 9 0
BBX 7 10 0 0
BITMAP
08
10
02
FE
C0
C2
FC
C0
C0
FE
ENDCHAR

STARTCHAR char234
ENCODING 234
SWIDTH 64 0
DWIDTH 9 0
BBX 7 10 0 0
BITMAP
18
28
02
FE
C0
C2
FC
C0
C0
FE
ENDCHAR

STARTCHAR char235
ENCODING 235
SWIDTH 64 0
DWIDTH 9 0
BBX 6 9 1 0
BITMAP
D8
04
FC
80
88
F8
80
80
FC
ENDCHAR

STARTCHAR char236
ENCODING 236
SWIDTH 21 0
DWIDTH 3 0
BBX 3 10 0 0
BITMAP
80
C0
00
C0
C0
C0
C0
C0
C0
E0
ENDCHAR

STARTCHAR char237
ENCODING 237
SWIDTH 21 0
DWIDTH 3 0
BBX 3 10 1 0
BITMAP
40
C0
00
C0
C0
C0
C0
C0
C0
A0
ENDCHAR

STARTCHAR char238
ENCODING 238
SWIDTH 21 0
DWIDTH 3 0
BBX 4 10 0 0
BITMAP
60
A0
90
60
60
60
60
60
60
70
ENDCHAR

STARTCHAR char239
ENCODING 239
SWIDTH 21 0
DWIDTH 3 0
BBX 5 9 -1 0
BITMAP
D8
00
60
60
60
60
60
60
70
ENDCHAR

STARTCHAR char241
ENCODING 241
SWIDTH 71 0
DWIDTH 10 0
BBX 9 9 0 0
BITMAP
3E00
0000
6300
F300
DB00
CB00
C700
C300
4180
ENDCHAR

STARTCHAR char242
ENCODING 242
SWIDTH 71 0
DWIDTH 10 0
BBX 9 10 0 0
BITMAP
1000
0800
0000
3F00
4100
C180
C180
C180
6100
1E00
ENDCHAR

STARTCHAR char243
ENCODING 243
SWIDTH 71 0
DWIDTH 10 0
BBX 9 10 0 0
BITMAP
0400
0800
0000
3F00
4100
C180
C180
C180
6100
1E00
ENDCHAR

STARTCHAR char244
ENCODING 244
SWIDTH 71 0
DWIDTH 10 0
BBX 9 10 0 0
BITMAP
0800
1400
2600
3F00
4100
C180
C180
C180
6100
1E00
ENDCHAR

STARTCHAR char245
ENCODING 245
SWIDTH 71 0
DWIDTH 10 0
BBX 9 9 0 0
BITMAP
3E00
0000
3F00
4100
C180
C180
C180
6100
1E00
ENDCHAR

STARTCHAR char246
ENCODING 246
SWIDTH 71 0
DWIDTH 10 0
BBX 9 9 0 0
BITMAP
3600
0000
3F00
4100
C180
C180
C180
4100
3E00
ENDCHAR

STARTCHAR char247
ENCODING 247
SWIDTH 50 0
DWIDTH 7 0
BBX 6 4 0 1
BITMAP
30
FC
00
30
ENDCHAR

STARTCHAR char248
ENCODING 248
SWIDTH 71 0
DWIDTH 10 0
BBX 9 8 0 0
BITMAP
0080
3E80
4380
C580
C980
D180
6100
BE00
ENDCHAR

STARTCHAR char249
ENCODING 249
SWIDTH 71 0
DWIDTH 10 0
BBX 8 10 0 0
BITMAP
10
10
00
C1
C1
C3
C3
C3
C3
3E
ENDCHAR

STARTCHAR char250
ENCODING 250
SWIDTH 71 0
DWIDTH 10 0
BBX 8 10 0 0
BITMAP
0C
08
00
C1
C1
C3
C3
C3
C3
3E
ENDCHAR

STARTCHAR char251
ENCODING 251
SWIDTH 71 0
DWIDTH 10 0
BBX 8 10 0 0
BITMAP
18
14
00
C1
C1
C3
C3
C3
C3
3E
ENDCHAR

STARTCHAR char252
ENCODING 252
SWIDTH 71 0
DWIDTH 10 0
BBX 8 9 0 0
BITMAP
36
00
C1
C1
C3
C3
C3
C3
7E
ENDCHAR

STARTCHAR char255
ENCODING 255
SWIDTH 57 0
DWIDTH 8 0
BBX 7 9 0 0
BITMAP
6C
00
46
64
28
18
18
18
3C
ENDCHAR
ENDFONT
